<svg width="201" height="75" viewBox="0 0 201 75" fill="none" xmlns="http://www.w3.org/2000/svg">
<rect x="2.82843" y="36.7695" width="48" height="49" transform="rotate(-45 2.82843 36.7695)" fill="#061C48" stroke="white" stroke-width="4"/>
<line x1="42" y1="9" x2="42" y2="52" stroke="white" stroke-width="4"/>
<path d="M95.5 48V46.02C95.96 46 96.34 45.94 96.64 45.84C96.96 45.74 97.2 45.51 97.36 45.15C97.54 44.79 97.63 44.21 97.63 43.41V31.92C97.63 31.38 97.64 30.86 97.66 30.36C97.7 29.86 97.73 29.48 97.75 29.22C97.43 29.24 97.03 29.26 96.55 29.28C96.07 29.28 95.72 29.29 95.5 29.31V27H104.11V28.98C103.67 29 103.29 29.06 102.97 29.16C102.65 29.26 102.4 29.49 102.22 29.85C102.06 30.19 101.98 30.77 101.98 31.59V43.08C101.98 43.62 101.97 44.13 101.95 44.61C101.93 45.09 101.9 45.46 101.86 45.72H105.88C107.06 45.7 107.98 45.29 108.64 44.49C109.32 43.67 109.66 42.44 109.66 40.8H111.67L111.49 48H95.5ZM113.365 46.05C113.925 46.05 114.325 45.94 114.565 45.72C114.805 45.5 114.955 45.19 115.015 44.79C115.095 44.37 115.135 43.9 115.135 43.38V38.4C115.135 38.04 115.145 37.63 115.165 37.17C115.185 36.69 115.215 36.23 115.255 35.79C114.935 35.81 114.555 35.83 114.115 35.85C113.695 35.85 113.375 35.86 113.155 35.88V33.6C114.075 33.6 114.855 33.55 115.495 33.45C116.135 33.35 116.635 33.23 116.995 33.09C117.375 32.95 117.635 32.82 117.775 32.7H119.395V43.17C119.395 43.45 119.385 43.85 119.365 44.37C119.345 44.87 119.315 45.35 119.275 45.81C119.595 45.77 119.945 45.75 120.325 45.75C120.725 45.73 121.025 45.72 121.225 45.72V48H113.365V46.05ZM117.115 30.33C116.435 30.33 115.875 30.09 115.435 29.61C114.995 29.13 114.775 28.55 114.775 27.87C114.775 27.19 115.005 26.61 115.465 26.13C115.925 25.65 116.465 25.41 117.085 25.41C117.725 25.41 118.255 25.65 118.675 26.13C119.115 26.61 119.335 27.19 119.335 27.87C119.335 28.55 119.135 29.13 118.735 29.61C118.335 30.09 117.795 30.33 117.115 30.33ZM124.279 31.05C124.279 30.69 124.279 30.28 124.279 29.82C124.299 29.34 124.329 28.88 124.369 28.44C124.049 28.46 123.669 28.48 123.229 28.5C122.809 28.5 122.489 28.51 122.269 28.53V26.25C123.209 26.25 123.989 26.2 124.609 26.1C125.249 26 125.749 25.88 126.109 25.74C126.489 25.6 126.749 25.47 126.889 25.35H128.509V34.14C129.189 33.54 129.879 33.12 130.579 32.88C131.279 32.64 131.939 32.52 132.559 32.52C133.759 32.52 134.809 32.83 135.709 33.45C136.629 34.07 137.339 34.95 137.839 36.09C138.359 37.23 138.619 38.57 138.619 40.11C138.619 41.71 138.319 43.15 137.719 44.43C137.139 45.69 136.309 46.68 135.229 47.4C134.149 48.12 132.849 48.48 131.329 48.48C130.789 48.48 130.099 48.36 129.259 48.12C128.439 47.9 127.679 47.42 126.979 46.68L126.079 48H124.279V31.05ZM128.509 43.5C128.509 44.18 128.619 44.72 128.839 45.12C129.059 45.52 129.339 45.81 129.679 45.99C130.019 46.17 130.359 46.27 130.699 46.29C131.599 46.31 132.299 46.05 132.799 45.51C133.319 44.97 133.679 44.26 133.879 43.38C134.099 42.48 134.209 41.54 134.209 40.56C134.209 39.64 134.099 38.77 133.879 37.95C133.659 37.13 133.309 36.47 132.829 35.97C132.349 35.45 131.719 35.2 130.939 35.22C130.439 35.24 129.979 35.37 129.559 35.61C129.139 35.83 128.789 36.13 128.509 36.51V43.5ZM140.816 46.05C141.376 46.05 141.776 45.94 142.016 45.72C142.256 45.5 142.406 45.19 142.466 44.79C142.546 44.37 142.586 43.9 142.586 43.38V38.34C142.586 37.98 142.596 37.58 142.616 37.14C142.636 36.68 142.666 36.23 142.706 35.79C142.386 35.81 142.006 35.83 141.566 35.85C141.146 35.85 140.826 35.86 140.606 35.88V33.6H141.806C142.586 33.6 143.296 33.5 143.936 33.3C144.596 33.1 145.026 32.9 145.226 32.7H146.696C146.736 32.9 146.766 33.28 146.786 33.84C146.806 34.38 146.816 34.86 146.816 35.28C147.356 34.62 147.866 34.09 148.346 33.69C148.826 33.29 149.296 33 149.756 32.82C150.236 32.62 150.716 32.52 151.196 32.52C151.896 32.52 152.506 32.72 153.026 33.12C153.546 33.5 153.806 34.13 153.806 35.01C153.806 35.31 153.736 35.63 153.596 35.97C153.456 36.29 153.236 36.56 152.936 36.78C152.636 37 152.226 37.11 151.706 37.11C151.306 37.11 150.896 36.99 150.476 36.75C150.056 36.51 149.816 36.05 149.756 35.37C149.356 35.37 148.956 35.54 148.556 35.88C148.156 36.2 147.796 36.59 147.476 37.05C147.176 37.49 146.966 37.9 146.846 38.28V43.17C146.846 43.45 146.836 43.85 146.816 44.37C146.796 44.87 146.766 45.35 146.726 45.81C147.046 45.77 147.396 45.75 147.776 45.75C148.176 45.73 148.476 45.72 148.676 45.72V48H140.816V46.05ZM163.424 48C163.384 47.72 163.354 47.49 163.334 47.31C163.334 47.11 163.324 46.88 163.304 46.62C162.624 47.3 161.904 47.78 161.144 48.06C160.384 48.34 159.614 48.48 158.834 48.48C157.554 48.48 156.554 48.1 155.834 47.34C155.114 46.58 154.754 45.63 154.754 44.49C154.754 43.53 154.994 42.71 155.474 42.03C155.974 41.35 156.624 40.8 157.424 40.38C158.244 39.94 159.144 39.61 160.124 39.39C161.124 39.15 162.124 39.01 163.124 38.97V37.41C163.124 36.89 163.054 36.42 162.914 36C162.794 35.58 162.574 35.25 162.254 35.01C161.954 34.77 161.524 34.66 160.964 34.68C160.584 34.7 160.214 34.78 159.854 34.92C159.494 35.06 159.184 35.26 158.924 35.52C159.084 35.7 159.184 35.9 159.224 36.12C159.264 36.32 159.284 36.5 159.284 36.66C159.284 37.06 159.124 37.48 158.804 37.92C158.484 38.34 157.974 38.54 157.274 38.52C156.674 38.5 156.214 38.29 155.894 37.89C155.574 37.49 155.414 37.02 155.414 36.48C155.414 35.68 155.694 34.99 156.254 34.41C156.834 33.81 157.604 33.35 158.564 33.03C159.524 32.69 160.584 32.52 161.744 32.52C163.504 32.52 164.864 32.98 165.824 33.9C166.804 34.8 167.294 36.25 167.294 38.25C167.294 38.93 167.294 39.51 167.294 39.99C167.294 40.47 167.284 40.95 167.264 41.43C167.264 41.91 167.264 42.49 167.264 43.17C167.264 43.45 167.254 43.85 167.234 44.37C167.214 44.87 167.184 45.35 167.144 45.81C167.484 45.77 167.844 45.75 168.224 45.75C168.604 45.73 168.894 45.72 169.094 45.72V48H163.424ZM163.094 41.1C162.534 41.16 162.004 41.26 161.504 41.4C161.004 41.54 160.564 41.73 160.184 41.97C159.824 42.21 159.534 42.5 159.314 42.84C159.114 43.18 159.014 43.56 159.014 43.98C159.034 44.54 159.214 44.94 159.554 45.18C159.894 45.42 160.284 45.54 160.724 45.54C161.184 45.54 161.614 45.44 162.014 45.24C162.414 45.04 162.774 44.78 163.094 44.46C163.094 44.26 163.094 44.07 163.094 43.89C163.094 43.69 163.094 43.49 163.094 43.29C163.094 42.93 163.094 42.57 163.094 42.21C163.094 41.83 163.094 41.46 163.094 41.1ZM170.816 46.05C171.376 46.05 171.776 45.94 172.016 45.72C172.256 45.5 172.406 45.19 172.466 44.79C172.546 44.37 172.586 43.9 172.586 43.38V38.34C172.586 37.98 172.596 37.58 172.616 37.14C172.636 36.68 172.666 36.23 172.706 35.79C172.386 35.81 172.006 35.83 171.566 35.85C171.146 35.85 170.826 35.86 170.606 35.88V33.6H171.806C172.586 33.6 173.296 33.5 173.936 33.3C174.596 33.1 175.026 32.9 175.226 32.7H176.696C176.736 32.9 176.766 33.28 176.786 33.84C176.806 34.38 176.816 34.86 176.816 35.28C177.356 34.62 177.866 34.09 178.346 33.69C178.826 33.29 179.296 33 179.756 32.82C180.236 32.62 180.716 32.52 181.196 32.52C181.896 32.52 182.506 32.72 183.026 33.12C183.546 33.5 183.806 34.13 183.806 35.01C183.806 35.31 183.736 35.63 183.596 35.97C183.456 36.29 183.236 36.56 182.936 36.78C182.636 37 182.226 37.11 181.706 37.11C181.306 37.11 180.896 36.99 180.476 36.75C180.056 36.51 179.816 36.05 179.756 35.37C179.356 35.37 178.956 35.54 178.556 35.88C178.156 36.2 177.796 36.59 177.476 37.05C177.176 37.49 176.966 37.9 176.846 38.28V43.17C176.846 43.45 176.836 43.85 176.816 44.37C176.796 44.87 176.766 45.35 176.726 45.81C177.046 45.77 177.396 45.75 177.776 45.75C178.176 45.73 178.476 45.72 178.676 45.72V48H170.816V46.05ZM188.821 56.13C188.061 56.13 187.411 55.9 186.871 55.44C186.351 55 186.091 54.41 186.091 53.67C186.091 53.13 186.261 52.65 186.601 52.23C186.961 51.83 187.421 51.62 187.981 51.6C188.421 51.58 188.791 51.72 189.091 52.02C189.411 52.34 189.571 52.77 189.571 53.31C189.571 53.37 189.571 53.43 189.571 53.49C189.571 53.55 189.561 53.62 189.541 53.7C189.581 53.7 189.631 53.69 189.691 53.67C189.871 53.61 190.061 53.44 190.261 53.16C190.481 52.9 190.691 52.55 190.891 52.11C191.111 51.65 191.321 51.13 191.521 50.55C191.741 49.99 191.931 49.4 192.091 48.78L187.351 39.27C186.791 38.15 186.421 37.31 186.241 36.75C186.081 36.17 185.971 35.66 185.911 35.22L184.531 35.28V33H192.001V34.92C191.261 35 190.851 35.28 190.771 35.76C190.711 36.24 190.801 36.74 191.041 37.26L193.981 43.98C194.181 43.46 194.441 42.66 194.761 41.58C195.081 40.48 195.461 39.29 195.901 38.01C195.981 37.75 196.081 37.45 196.201 37.11C196.341 36.75 196.491 36.4 196.651 36.06C196.811 35.7 196.981 35.41 197.161 35.19L195.451 35.28V33H200.791V34.92C200.171 35.06 199.651 35.44 199.231 36.06C198.831 36.68 198.471 37.44 198.151 38.34L194.401 49.05C193.841 50.67 193.311 52 192.811 53.04C192.311 54.1 191.751 54.88 191.131 55.38C190.511 55.88 189.741 56.13 188.821 56.13Z" fill="white"/>
</svg>
