<svg width="201" height="75" viewBox="0 0 201 75" fill="none" xmlns="http://www.w3.org/2000/svg">
<rect x="2.82843" y="36.7695" width="48" height="49" transform="rotate(-45 2.82843 36.7695)" fill="white" stroke="#061C48" stroke-width="4"/>
<line x1="42" y1="9" x2="42" y2="52" stroke="#061C48" stroke-width="4"/>
<path d="M95.5 52V50.02C95.96 50 96.34 49.94 96.64 49.84C96.96 49.74 97.2 49.51 97.36 49.15C97.54 48.79 97.63 48.21 97.63 47.41V35.92C97.63 35.38 97.64 34.86 97.66 34.36C97.7 33.86 97.73 33.48 97.75 33.22C97.43 33.24 97.03 33.26 96.55 33.28C96.07 33.28 95.72 33.29 95.5 33.31V31H104.11V32.98C103.67 33 103.29 33.06 102.97 33.16C102.65 33.26 102.4 33.49 102.22 33.85C102.06 34.19 101.98 34.77 101.98 35.59V47.08C101.98 47.62 101.97 48.13 101.95 48.61C101.93 49.09 101.9 49.46 101.86 49.72H105.88C107.06 49.7 107.98 49.29 108.64 48.49C109.32 47.67 109.66 46.44 109.66 44.8H111.67L111.49 52H95.5ZM113.365 50.05C113.925 50.05 114.325 49.94 114.565 49.72C114.805 49.5 114.955 49.19 115.015 48.79C115.095 48.37 115.135 47.9 115.135 47.38V42.4C115.135 42.04 115.145 41.63 115.165 41.17C115.185 40.69 115.215 40.23 115.255 39.79C114.935 39.81 114.555 39.83 114.115 39.85C113.695 39.85 113.375 39.86 113.155 39.88V37.6C114.075 37.6 114.855 37.55 115.495 37.45C116.135 37.35 116.635 37.23 116.995 37.09C117.375 36.95 117.635 36.82 117.775 36.7H119.395V47.17C119.395 47.45 119.385 47.85 119.365 48.37C119.345 48.87 119.315 49.35 119.275 49.81C119.595 49.77 119.945 49.75 120.325 49.75C120.725 49.73 121.025 49.72 121.225 49.72V52H113.365V50.05ZM117.115 34.33C116.435 34.33 115.875 34.09 115.435 33.61C114.995 33.13 114.775 32.55 114.775 31.87C114.775 31.19 115.005 30.61 115.465 30.13C115.925 29.65 116.465 29.41 117.085 29.41C117.725 29.41 118.255 29.65 118.675 30.13C119.115 30.61 119.335 31.19 119.335 31.87C119.335 32.55 119.135 33.13 118.735 33.61C118.335 34.09 117.795 34.33 117.115 34.33ZM124.279 35.05C124.279 34.69 124.279 34.28 124.279 33.82C124.299 33.34 124.329 32.88 124.369 32.44C124.049 32.46 123.669 32.48 123.229 32.5C122.809 32.5 122.489 32.51 122.269 32.53V30.25C123.209 30.25 123.989 30.2 124.609 30.1C125.249 30 125.749 29.88 126.109 29.74C126.489 29.6 126.749 29.47 126.889 29.35H128.509V38.14C129.189 37.54 129.879 37.12 130.579 36.88C131.279 36.64 131.939 36.52 132.559 36.52C133.759 36.52 134.809 36.83 135.709 37.45C136.629 38.07 137.339 38.95 137.839 40.09C138.359 41.23 138.619 42.57 138.619 44.11C138.619 45.71 138.319 47.15 137.719 48.43C137.139 49.69 136.309 50.68 135.229 51.4C134.149 52.12 132.849 52.48 131.329 52.48C130.789 52.48 130.099 52.36 129.259 52.12C128.439 51.9 127.679 51.42 126.979 50.68L126.079 52H124.279V35.05ZM128.509 47.5C128.509 48.18 128.619 48.72 128.839 49.12C129.059 49.52 129.339 49.81 129.679 49.99C130.019 50.17 130.359 50.27 130.699 50.29C131.599 50.31 132.299 50.05 132.799 49.51C133.319 48.97 133.679 48.26 133.879 47.38C134.099 46.48 134.209 45.54 134.209 44.56C134.209 43.64 134.099 42.77 133.879 41.95C133.659 41.13 133.309 40.47 132.829 39.97C132.349 39.45 131.719 39.2 130.939 39.22C130.439 39.24 129.979 39.37 129.559 39.61C129.139 39.83 128.789 40.13 128.509 40.51V47.5ZM140.816 50.05C141.376 50.05 141.776 49.94 142.016 49.72C142.256 49.5 142.406 49.19 142.466 48.79C142.546 48.37 142.586 47.9 142.586 47.38V42.34C142.586 41.98 142.596 41.58 142.616 41.14C142.636 40.68 142.666 40.23 142.706 39.79C142.386 39.81 142.006 39.83 141.566 39.85C141.146 39.85 140.826 39.86 140.606 39.88V37.6H141.806C142.586 37.6 143.296 37.5 143.936 37.3C144.596 37.1 145.026 36.9 145.226 36.7H146.696C146.736 36.9 146.766 37.28 146.786 37.84C146.806 38.38 146.816 38.86 146.816 39.28C147.356 38.62 147.866 38.09 148.346 37.69C148.826 37.29 149.296 37 149.756 36.82C150.236 36.62 150.716 36.52 151.196 36.52C151.896 36.52 152.506 36.72 153.026 37.12C153.546 37.5 153.806 38.13 153.806 39.01C153.806 39.31 153.736 39.63 153.596 39.97C153.456 40.29 153.236 40.56 152.936 40.78C152.636 41 152.226 41.11 151.706 41.11C151.306 41.11 150.896 40.99 150.476 40.75C150.056 40.51 149.816 40.05 149.756 39.37C149.356 39.37 148.956 39.54 148.556 39.88C148.156 40.2 147.796 40.59 147.476 41.05C147.176 41.49 146.966 41.9 146.846 42.28V47.17C146.846 47.45 146.836 47.85 146.816 48.37C146.796 48.87 146.766 49.35 146.726 49.81C147.046 49.77 147.396 49.75 147.776 49.75C148.176 49.73 148.476 49.72 148.676 49.72V52H140.816V50.05ZM163.424 52C163.384 51.72 163.354 51.49 163.334 51.31C163.334 51.11 163.324 50.88 163.304 50.62C162.624 51.3 161.904 51.78 161.144 52.06C160.384 52.34 159.614 52.48 158.834 52.48C157.554 52.48 156.554 52.1 155.834 51.34C155.114 50.58 154.754 49.63 154.754 48.49C154.754 47.53 154.994 46.71 155.474 46.03C155.974 45.35 156.624 44.8 157.424 44.38C158.244 43.94 159.144 43.61 160.124 43.39C161.124 43.15 162.124 43.01 163.124 42.97V41.41C163.124 40.89 163.054 40.42 162.914 40C162.794 39.58 162.574 39.25 162.254 39.01C161.954 38.77 161.524 38.66 160.964 38.68C160.584 38.7 160.214 38.78 159.854 38.92C159.494 39.06 159.184 39.26 158.924 39.52C159.084 39.7 159.184 39.9 159.224 40.12C159.264 40.32 159.284 40.5 159.284 40.66C159.284 41.06 159.124 41.48 158.804 41.92C158.484 42.34 157.974 42.54 157.274 42.52C156.674 42.5 156.214 42.29 155.894 41.89C155.574 41.49 155.414 41.02 155.414 40.48C155.414 39.68 155.694 38.99 156.254 38.41C156.834 37.81 157.604 37.35 158.564 37.03C159.524 36.69 160.584 36.52 161.744 36.52C163.504 36.52 164.864 36.98 165.824 37.9C166.804 38.8 167.294 40.25 167.294 42.25C167.294 42.93 167.294 43.51 167.294 43.99C167.294 44.47 167.284 44.95 167.264 45.43C167.264 45.91 167.264 46.49 167.264 47.17C167.264 47.45 167.254 47.85 167.234 48.37C167.214 48.87 167.184 49.35 167.144 49.81C167.484 49.77 167.844 49.75 168.224 49.75C168.604 49.73 168.894 49.72 169.094 49.72V52H163.424ZM163.094 45.1C162.534 45.16 162.004 45.26 161.504 45.4C161.004 45.54 160.564 45.73 160.184 45.97C159.824 46.21 159.534 46.5 159.314 46.84C159.114 47.18 159.014 47.56 159.014 47.98C159.034 48.54 159.214 48.94 159.554 49.18C159.894 49.42 160.284 49.54 160.724 49.54C161.184 49.54 161.614 49.44 162.014 49.24C162.414 49.04 162.774 48.78 163.094 48.46C163.094 48.26 163.094 48.07 163.094 47.89C163.094 47.69 163.094 47.49 163.094 47.29C163.094 46.93 163.094 46.57 163.094 46.21C163.094 45.83 163.094 45.46 163.094 45.1ZM170.816 50.05C171.376 50.05 171.776 49.94 172.016 49.72C172.256 49.5 172.406 49.19 172.466 48.79C172.546 48.37 172.586 47.9 172.586 47.38V42.34C172.586 41.98 172.596 41.58 172.616 41.14C172.636 40.68 172.666 40.23 172.706 39.79C172.386 39.81 172.006 39.83 171.566 39.85C171.146 39.85 170.826 39.86 170.606 39.88V37.6H171.806C172.586 37.6 173.296 37.5 173.936 37.3C174.596 37.1 175.026 36.9 175.226 36.7H176.696C176.736 36.9 176.766 37.28 176.786 37.84C176.806 38.38 176.816 38.86 176.816 39.28C177.356 38.62 177.866 38.09 178.346 37.69C178.826 37.29 179.296 37 179.756 36.82C180.236 36.62 180.716 36.52 181.196 36.52C181.896 36.52 182.506 36.72 183.026 37.12C183.546 37.5 183.806 38.13 183.806 39.01C183.806 39.31 183.736 39.63 183.596 39.97C183.456 40.29 183.236 40.56 182.936 40.78C182.636 41 182.226 41.11 181.706 41.11C181.306 41.11 180.896 40.99 180.476 40.75C180.056 40.51 179.816 40.05 179.756 39.37C179.356 39.37 178.956 39.54 178.556 39.88C178.156 40.2 177.796 40.59 177.476 41.05C177.176 41.49 176.966 41.9 176.846 42.28V47.17C176.846 47.45 176.836 47.85 176.816 48.37C176.796 48.87 176.766 49.35 176.726 49.81C177.046 49.77 177.396 49.75 177.776 49.75C178.176 49.73 178.476 49.72 178.676 49.72V52H170.816V50.05ZM188.821 60.13C188.061 60.13 187.411 59.9 186.871 59.44C186.351 59 186.091 58.41 186.091 57.67C186.091 57.13 186.261 56.65 186.601 56.23C186.961 55.83 187.421 55.62 187.981 55.6C188.421 55.58 188.791 55.72 189.091 56.02C189.411 56.34 189.571 56.77 189.571 57.31C189.571 57.37 189.571 57.43 189.571 57.49C189.571 57.55 189.561 57.62 189.541 57.7C189.581 57.7 189.631 57.69 189.691 57.67C189.871 57.61 190.061 57.44 190.261 57.16C190.481 56.9 190.691 56.55 190.891 56.11C191.111 55.65 191.321 55.13 191.521 54.55C191.741 53.99 191.931 53.4 192.091 52.78L187.351 43.27C186.791 42.15 186.421 41.31 186.241 40.75C186.081 40.17 185.971 39.66 185.911 39.22L184.531 39.28V37H192.001V38.92C191.261 39 190.851 39.28 190.771 39.76C190.711 40.24 190.801 40.74 191.041 41.26L193.981 47.98C194.181 47.46 194.441 46.66 194.761 45.58C195.081 44.48 195.461 43.29 195.901 42.01C195.981 41.75 196.081 41.45 196.201 41.11C196.341 40.75 196.491 40.4 196.651 40.06C196.811 39.7 196.981 39.41 197.161 39.19L195.451 39.28V37H200.791V38.92C200.171 39.06 199.651 39.44 199.231 40.06C198.831 40.68 198.471 41.44 198.151 42.34L194.401 53.05C193.841 54.67 193.311 56 192.811 57.04C192.311 58.1 191.751 58.88 191.131 59.38C190.511 59.88 189.741 60.13 188.821 60.13Z" fill="#061C48"/>
</svg>
